# xmcd
#
# Track frame offsets: 
#        150
#        15784
#        30160
#        44062
#        57712
#        70867
#        90007
#        103305
#        116240
#        128014
#        146413
#        163121
#        182379
#        196910
#        213756
#        227560
#
# Disc length: 3183 seconds
#
# Revision: 0
# Processed by: cddbd v1.5.2PL0 Copyright (c) Steve Scherf et al.
# Submitted via: ExactAudioCopyFreeDBPlugin 1.0
#
DISCID=cd0c6d10
DTITLE=Various Artist - Best Of Country [CD2]
DYEAR=1998
DGENRE=Country
TTITLE0=Marty Stuart+Travis Tritt - This One's Gonna Hurt You [For A L
TTITLE0=ong,Long Time]
TTITLE1=Vince Gill - One More Last Chance
TTITLE2=Mark Chesnutt - Bubba Shot The Jukebox
TTITLE3=Tracy Byrd - Watermelon Crawl
TTITLE4=Marty Stuart - Burn Me Down
TTITLE5=Vince Gill+Patty Loveless - When I Call Your Name
TTITLE6=Mark Chesnutt - It Sure Is Monday
TTITLE7=Tracy Byrd - Lifestyles Of The Not So Rich And Famous
TTITLE8=Marty Stuart - Hillbilly Rock
TTITLE9=Vince Gill - Pocket Full Of Gold
TTITLE10=Mark Chesnutt - Gonna Get A Life
TTITLE11=Tracy Byrd - The Keeper Of The Stars
TTITLE12=Marty Stuart - Tempted
TTITLE13=Vince Gill - Tryin' To Get Over You
TTITLE14=Mark Chesnutt - Brother Jukebox
TTITLE15=Tracy Byrd - Holdin' Heaven
EXTD=
EXTT0=
EXTT1=
EXTT2=
EXTT3=
EXTT4=
EXTT5=
EXTT6=
EXTT7=
EXTT8=
EXTT9=
EXTT10=
EXTT11=
EXTT12=
EXTT13=
EXTT14=
EXTT15=
PLAYORDER=
